<?xml version="1.0" encoding="utf-8"?>
<!-- Generator: Adobe Illustrator 16.0.0, SVG Export Plug-In . SVG Version: 6.00 Build 0)  -->
<!DOCTYPE svg PUBLIC "-//W3C//DTD SVG 1.1//EN" "http://www.w3.org/Graphics/SVG/1.1/DTD/svg11.dtd">
<svg version="1.1" id="Layer_1" xmlns="http://www.w3.org/2000/svg" xmlns:xlink="http://www.w3.org/1999/xlink" x="0px" y="0px"
	 width="612px" height="792px" viewBox="0 0 612 792" enable-background="new 0 0 612 792" xml:space="preserve">
<path fill="none" d="M214.118,221.471c22-4.5,54-7.5,83.5-7.5c46.5,0,77,9,98,28c16.5,14.5,26.5,37.5,26.5,64
	c0,44-28.5,73.5-63.5,85.5v1.5c25.5,9,41,33,49.5,68c11,47,19,79.5,25.5,92.5h-45c-5.5-9.5-13-38.5-22-80.5
	c-10-46.5-28.5-64-68-65.5h-41v146h-43.5V221.471z M257.618,374.471h44.5c46.5,0,76-25.5,76-64c0-43.5-31.5-62.5-77.5-62.5
	c-21,0-35.5,2-43,4V374.471z"/>
</svg>
