<?xml version="1.0" encoding="utf-8"?>
<!-- Generator: Adobe Illustrator 16.0.0, SVG Export Plug-In . SVG Version: 6.00 Build 0)  -->
<!DOCTYPE svg PUBLIC "-//W3C//DTD SVG 1.1//EN" "http://www.w3.org/Graphics/SVG/1.1/DTD/svg11.dtd">
<svg version="1.1" id="Layer_1" xmlns="http://www.w3.org/2000/svg" xmlns:xlink="http://www.w3.org/1999/xlink" x="0px" y="0px"
	 width="200px" height="200px" viewBox="0 0 200 200" enable-background="new 0 0 200 200" xml:space="preserve">
<path transform="translate(0.000000,200.000000) scale(0.100000,-0.100000)" fill="none" d="M937.002,1713.999
	c1.499-3.999,3.496-6.997,5.747-8.623s4.751-1.875,7.251-0.376c2.002,1.001,6.001,0.498,10.752-1.377
	c4.746-1.875,10.249-5.127,15.249-9.624c8.999-6.997,13.501-10.747,12.876-11.875c-0.625-1.123-6.377,0.376-17.876,3.877
	c-8.999,2.5-14.502,3.247-17.002,2.124s-1.997-4.126,1.001-9.126c2.5-3.999,1.748-5-1.25-3.623
	c-2.998,1.372-8.252,5.122-14.751,10.625c-16.499,14.497-29.497,22.998-40.249,25.498c-10.747,2.5-19.248-1.001-26.748-10.498
	c-5-6.001-8.75-9.253-11.626-9.751c-2.876-0.503-4.878,1.748-6.377,6.748c-1.499,2.998-3.999,6.001-6.875,8.252
	s-6.128,3.75-9.126,3.75s-4.497-1.499-4.248-4.126c0.254-2.622,2.251-6.372,6.25-10.874c5-6.001,6.748-10,4.375-13.75
	s-8.877-7.251-20.376-12.251c-18.501-6.499-34.751-16.499-53.374-33.75s-39.629-41.753-67.627-77.251
	c-29.502-38.496-47.5-73.496-58.125-127.246s-13.872-126.25-13.872-239.751c0-86.499,1.001-138.003,3.999-164.624
	c2.998-26.626,7.998-28.379,16.001-15.376c6.001,10,8.75,19.248,8.374,23.75c-0.376,4.497-3.877,4.248-10.376-4.751
	c-3.501-5.498-5.498-5.249-5.996,1.25c-0.503,6.499,0.498,19.248,2.998,38.75c1.997,15,3.75,32.998,4.873,49.751
	c1.128,16.753,1.626,32.251,1.128,42.251s0,19.751,1.372,27.5c1.377,7.749,3.628,13.496,6.626,15.498c2.5,1.499,5,4.248,6.875,7.251
	c1.875,2.998,3.125,6.25,3.125,8.75c0,3.003-1.25,4.751-3.252,5.376c-1.997,0.625-4.746,0.122-7.749-1.377
	c-6.499-4.502-7.5,40-5,92.876S662.5,1432.002,670,1461.001c5.498,21.001,29.502,56.25,57.627,89.126
	c28.125,32.871,60.371,63.374,82.373,74.873c18.999,10,44.746,17.002,77.749,21.25s73.252,5.752,121.255,4.751
	c33.496-0.503,56.25-2.002,74.248-5.503c17.998-3.496,31.25-8.999,45.752-17.5c26.992-16.499,61.748-47.5,90.498-78.374
	s51.494-61.626,54.502-77.622c6.504-30,10-55.498,10.742-77.5c0.752-22.002-1.25-40.503-5.742-56.504
	c-2.5-8.999-6.504-29.497-10.879-55.371c-4.375-25.879-9.121-57.129-13.125-87.627c-10.996-86.001-19.746-147.998-26.875-189.873
	s-12.627-63.623-17.129-69.131c-1.992-2.998-3.994-7.5-5.498-12.246c-1.494-4.746-2.5-9.746-2.5-13.75c0-10-8.252-32.5-17.744-52.5
	C1175.752,837.5,1165,820,1160,820c-2.5,0-5.254,1.504-7.754,3.877s-4.746,5.615-6.25,9.121c-1.504,2.998-2.246,3.506-2.246,1.748
	c0-1.748,0.742-5.742,2.246-11.748c2.002-7.998,1.006-15-3.623-22.373c-4.619-7.373-12.871-15.127-25.371-24.629
	c-9.502-6.992-18.75-13.496-26.123-18.242c-7.383-4.756-12.881-7.754-14.883-7.754c-4.004,0,2.754,17.246,15.625,42.754
	c12.881,25.498,31.875,59.248,52.383,92.246c21.504,33.496,35,58.496,38.994,70.127c4.004,11.621-1.494,9.873-17.998-10.127
	c-7.002-7.998-18.008-24.746-30-45.127c-12.002-20.371-25-44.375-35.996-66.875c-11.504-22.998-25-46.494-37.5-65.869
	S1037.5,732.5,1030,725.996c-7.998-6.504-14.502-13.242-18.496-18.867c-4.004-5.625-5.508-10.127-3.506-12.129
	c2.002-2.5,2.256-3.75,1.133-3.877s-3.623,0.879-7.129,2.881c-3.501,1.992-9.502,1.992-16.504,0.371s-15-4.873-22.5-9.375
	c-8.999-5.996-18.75-10-30.249-12.002s-24.751-2.002-40.747,0c-18.501,2.002-31.504,5.254-44.253,12.373
	C835,692.5,822.5,703.496,805,720.996c-21.001,22.5-36.504,42.246-44.629,56.377S751.499,800,760,800
	c2.998,0,5.498,0.996,7.251,2.754c1.748,1.748,2.749,4.248,2.749,7.246c0,2.5-1.25,4.746-3.125,6.123s-4.375,1.885-6.875,0.879
	c-5-1.006-17.998,20.498-32.002,50C713.999,896.504,698.999,934.004,690,965c-2.5,8.496-4.502,23.75-5.625,41.626
	s-1.377,38.374-0.376,57.373c1.001,25.503,1.25,41.499,0.249,49.375c-0.996,7.876-3.247,7.622-7.246,0.625
	c-2.998-5.503-5.498-18.501-7.002-35.122c-1.499-16.626-2.002-36.875-1.001-56.875c0.503-27.5,2.749-49.248,7.5-70.127
	s11.997-40.879,22.5-64.873c8.003-17.002,16.499-36.748,23.75-55s13.247-35.01,16.25-46.006c2.5-10.498,7.002-22.5,12.124-33.369
	c5.127-10.879,10.879-20.635,15.879-26.631c6.499-7.998,9.248-11.748,7.622-11.123s-7.622,5.625-18.623,15.127l-13.999,12.5
	L727.998,755l11.001-22.5L750,710c10-19.502,16.001-30,20.376-33.506c4.375-3.496,7.124,0.01,10.625,8.506
	c3.999,10,6.001,15,6.997,15c1.001,0,1.001-5,1.001-15c0.503-12.5,17.749-28.75,40.127-41.875C851.499,630,878.999,620,900,620
	c19.502,0,45.498,7.998,73.125,21.875c27.622,13.877,56.875,33.633,82.871,57.129c39.502,35,64.756,56.748,81.377,69.375
	c16.631,12.617,24.629,16.113,29.629,14.619c3.994-1.494,14.248,16.25,26.748,44.248c12.5,28.008,27.246,66.25,40.254,105.752
	c1.504,5,5.254,9.248,10.625,12.256C1250,948.252,1257.002,950,1265,950c14.502,0,34.258,15.498,51.758,37.129
	c17.5,21.621,32.744,49.375,38.242,73.872c2.002,8.003,4.746,15.249,7.5,20.498s5.498,8.501,7.5,8.501c2.5,0,4.248,1.748,5,4.502
	c0.752,2.749,0.508,6.499-0.996,10.498c-2.002,3.999-2.256,7.749-1.133,10.498c1.133,2.754,3.633,4.502,7.129,4.502
	c4.502,0,6.758,1.001,7.002,3.125c0.254,2.124-1.494,5.371-5,9.873c-2.5,2.998-5.498,8.75-8.252,15.503
	c-2.754,6.748-5.254,14.497-6.748,21.499c-1.494,8.999-2.744,12.749-3.75,10.752c-1.006-2.002-1.748-9.751-2.256-23.75
	c0-10.498-2.002-24.004-5-37.378s-6.992-26.626-10.996-36.626c-4.004-9.502-7.754-20.249-10.498-29.873
	C1331.748,1043.501,1330,1035,1330,1030c0-10.498-13.496-27.998-29.746-42.871C1284.004,972.246,1265,960,1254.004,960
	c-5.996,0-9.258,2.5-10.381,10.371c-1.123,7.881-0.127,21.133,2.373,42.627c1.504,14.004,4.502,29.751,7.881,43.75
	c3.369,14.004,7.119,26.25,10.127,33.252c3.496,7.002,6.25,17.749,7.744,29.248c1.504,11.499,1.748,23.75,0.254,33.75
	c-1.494,14.502-1.748,23.75,0,29.375s5.498,7.627,12.002,7.627c5.996,0,10,2.749,12.617,9.502c2.627,6.748,3.877,17.5,4.375,33.496
	c0.508,11.504,1.504,24.751,2.754,36.875c1.25,12.129,2.754,23.125,4.248,30.127c6.494,30,7.5,73.75,4.248,115.874
	c-3.242,42.124-10.742,82.627-21.25,106.128c-11.504,25.498-41.992,62.5-73.125,93.125C1186.748,1645.752,1155,1670,1140.996,1670
	c-5,0-12.5,2.251-20.625,6.001s-16.875,8.999-24.375,15c-11.992,9.497-18.75,14.248-24.365,14.873
	c-5.625,0.625-10.127-2.876-17.627-9.873c-10.508-11.001-20.508-16.001-30-15.127c-9.502,0.874-18.496,7.627-27.002,20.127
	c-8.501,11.997-25.752,20.747-39.751,23.75C943.252,1727.749,932.5,1725,937.002,1713.999z M892.998,1675
	c-2.5-7.998-6.499-12.749-11.123-14.248c-4.624-1.504-9.873,0.249-14.873,5.249c-3.501,3.999,0.498,12.251,6.499,18.872
	c6.001,6.626,13.999,11.626,18.501,9.126c2.002-1.499,3.252-4.248,3.501-7.622C895.752,1682.998,895,1678.999,892.998,1675z
	 M1010.996,1721.001c-5.498-3.501-7.998-6.25-6.997-9.253c1.001-2.998,5.503-6.25,13.999-10.747c7.998-3.999,13.252-5.752,17.129-5
	c3.877,0.747,6.377,3.999,8.877,10c1.504,4.497,2.998,8.999,4.121,12.622c1.123,3.628,1.875,6.377,1.875,7.378
	c0,3.501-5.996,4.497-13.877,3.501C1028.242,1728.501,1018.496,1725.498,1010.996,1721.001z M858.999,1172.998l11.626,10.503
	L880,1185l12.749,9.126L910,1242.998l3.75,21.377l-9.751,5.625l-10,3.877l-3.999,9.121l-26.748,42.754l-70.254,20.249l-46.123,0.376
	L717.998,1340l-31.372-40.249l-3.628-23.75l15.127,10.874l18.877,16.123l28.75,15.127l51.25-2.124l69.746-22.627L890,1246.001
	l-10-35.503L870,1205l-4.624-0.127l-11.377-12.871l-9.497-18.252l-0.503-10.752l-0.498-9.751l-9.502-14.248l-11.499-36.001
	l27.5-20.996l22.998-7.378l20-12.622l18.501-9.878l21.499,5.874l25.879,8.877l31.123,5.127l28.379,6.748l9.619,17.251l-2.373,18.501
	L1015,1130l-11.25,5.249l2.246-23.247l1.133-24.502L985,1087.002l-25.498,0.249L933.999,1080l-22.876-7.876l-19.121,10.874
	l-19.253,12.251L852.002,1100l-21.377,13.999l24.375,20l17.749,8.999L880,1155l-4.375,9.248 M1040.996,1323.999
	c-15.498-6.499-26.748-16.997-30.498-24.375c-3.75-7.373,0-11.626,14.502-5.625c4.004,1.499,14.746,3.501,28.877,5.63
	c14.121,2.124,31.621,4.375,49.121,6.372c30.498,3.003,46.25,4.253,57.754,0.874c11.494-3.374,18.74-11.377,32.246-26.875
	c7.998-8.501,15.752-16.001,21.758-21.001c5.996-5,10.244-7.5,11.24-6.001c3.496,3.501-4.004,20-14.375,36.504
	c-10.371,16.499-23.623,32.998-31.621,36.499c-13.496,6.499-40.498,9.248-67.998,8.75
	C1084.502,1334.248,1056.504,1330.498,1040.996,1323.999z M770,1282.998c-12.5-5-27.5-15-38.501-24.502
	c-11.001-9.497-17.998-18.496-14.497-21.494c1.499-2.002,6.25-1.25,12.5,1.372c6.25,2.627,13.999,7.124,21.499,12.627
	c11.997,8.501,19.248,12.998,23.501,13.75c4.248,0.747,5.498-2.251,5.498-8.75c0-5,2.251-8.999,6.499-11.753
	c4.253-2.749,10.503-4.248,18.501-4.248s14.248,1.499,18.501,4.126c4.248,2.622,6.499,6.372,6.499,10.874
	c0,3.999,1.25,7.749,3.125,10.498C835,1268.252,837.5,1270,840,1270c2.998,0,5.498-1.748,7.251-4.502
	c1.748-2.749,2.749-6.499,2.749-10.498s1.25-7.749,3.125-10.498C855,1241.748,857.5,1240,860,1240c7.002,0,10,3.999,9.375,9.624
	s-4.873,12.876-12.373,19.375c-8.501,6.997-25.254,12.5-42.378,15.249C797.5,1287.002,780,1287.002,770,1282.998z M968.999,1272.998
	c-2.5-20-2.5-44.502-1.001-62.998c1.504-18.501,4.502-31.001,8.003-27.002c5,5,8.247,26.499,8.999,47.627
	c0.752,21.123-1.001,41.875-6.001,45.376c-2.5,1.499-4.751,1.997-6.499,1.499C970.752,1276.997,969.502,1275.498,968.999,1272.998z
	 M1020,1255c-5-6.001-7.5-9.751-7.002-12.002c0.498-2.246,4.004-2.998,11.006-2.998c4.492,0,8.496,1.25,11.367,3.125
	c2.881,1.875,4.629,4.375,4.629,6.875c0,2.998,1.25,5.498,3.125,7.251c1.875,1.748,4.375,2.749,6.875,2.749
	c2.998,0,5.498-1.499,7.246-3.877c1.758-2.373,2.754-5.625,2.754-9.121c0-6.504,8.496-10.752,18.496-11.875
	c10-1.128,21.504,0.874,27.5,6.875c1.504,2.002,6.758,1.25,14.004-1.377s16.504-7.129,25.996-12.627
	c22.002-12.998,33.008-15.498,33.125-10.996c0.127,4.497-10.625,15.996-32.119,30.996c-19.502,12.998-46.504,20.498-71.006,21.875
	C1051.504,1271.25,1029.502,1266.499,1020,1255z M747.002,1218.999c3.496-3.501,7.246-6.001,10.498-7.251s6.001-1.25,7.5,0.254
	c1.499,1.499,0.996,3.75-1.128,5.996c-2.124,2.251-5.874,4.502-10.874,6.001c-7.002,3.003-10.752,4.253-11.626,3.501
	S742.5,1223.999,747.002,1218.999z M1325,1213.999c-9.004-6.499-13.496-10-12.5-11.875s7.5-2.124,20.498-2.124
	c7.5,0,14.248,1.001,19.131,2.627c4.873,1.621,7.871,3.872,7.871,6.372c0,8.501-3.75,13.252-10,14.126S1335,1220.996,1325,1213.999z
	 M950,1182.998c0.498-7.002,7.998-18.75,16.123-27.998s16.875-15.996,19.878-12.998c1.499,2.002,0.498,5.996-2.251,10.874
	c-2.749,4.873-7.246,10.62-12.749,16.123c-6.001,6.001-11.25,10.503-15,13.003S950,1185,950,1182.998z M1307.002,1163.999
	c-18.994-10.503-27.5-19.502-26.25-23.501s12.246-2.998,32.246,6.504c20,10,30,15,33.75,18.252c3.75,3.247,1.25,4.746-3.75,7.744
	c-2.002,1.504-7.002,1.25-13.496-0.371C1322.998,1171.001,1315,1167.998,1307.002,1163.999z M1230.996,1133.999
	c0-5.503,0.752-8.999,1.875-10.127c1.133-1.123,2.637,0.127,4.131,4.126c1.494,3.501,2.002,7.5,1.748,11.001
	s-1.25,6.499-2.754,8.003c-1.504,2.002-2.998,1.499-3.994-0.879C1230.996,1143.75,1230.498,1139.502,1230.996,1133.999z
	 M1310.996,1120c0-3.999,0.996-9.502,2.627-15s3.877-11.001,6.377-15c5.996-8.999,9.004-9.502,9.004-4.375
	s-3.008,15.874-9.004,29.375c-2.998,6.499-5.254,10.249-6.748,11.123C1311.748,1127.002,1310.996,1125,1310.996,1120z M757.002,1085
	c-5-7.002-8.999-13.252-11.499-17.749c-2.505-4.502-3.501-7.251-2.505-7.251c3.501,0,15.254,9.248,26.128,19.375
	S790,1100.498,790,1103.999c0,6.499-3.999,7.5-10.127,3.999C773.75,1104.502,765.498,1096.499,757.002,1085z M1092.998,1053.999
	c10-9.497,19.248-20,26.006-29.126c6.748-9.121,10.996-16.875,10.996-20.874c0-4.995-1.504-6.997-5-5.747s-9.004,5.752-17.002,13.75
	c-10.498,10.498-15.996,15.747-19.746,15.996s-5.752-4.502-9.248-13.999c-3.008-8.003-5-12.002-6.26-12.251
	c-1.25-0.249-1.748,3.252-1.748,10.254c-0.498,5.996-1.992,9.746-4.746,11.499c-2.754,1.748-6.748,1.499-12.246-0.503
	c-5.508-2.002-11.006-1.748-16.133,0.376c-5.117,2.124-9.863,6.128-13.867,11.626c-5,7.002-8.496,10.752-10.752,11.377
	s-3.252-1.875-3.252-7.378c0-6.001-0.498-8.999-2.129-8.872c-1.621,0.127-4.375,3.374-8.872,9.873
	c-3.999,6.001-6.997,9.004-9.497,9.253s-4.502-2.251-6.504-7.251s-3.999-7.5-7.124-7.5s-7.373,2.5-13.872,7.5
	c-6.504,5.498-10.254,7.998-11.626,7.373c-1.377-0.625-0.376-4.375,2.622-11.377c1.504-5,2.002-9.502,1.504-12.749
	c-0.503-3.247-2.002-5.249-4.502-5.249c-2.998,0-5.498,1.25-7.251,3.125C941.001,1025,940,1027.5,940,1030
	c0,2.998-1.001,5.498-2.749,7.251c-1.753,1.748-4.253,2.749-7.251,2.749c-2.5,0-5-1.748-6.875-4.624s-3.125-6.88-3.125-11.377
	c0-6.499,1.748-10.249,6.377-11.748c4.624-1.499,12.124-0.752,23.623,1.748c8.501,1.499,16.001,1.753,21.377,1.001
	c5.371-0.752,8.623-2.5,8.623-5s2.998-4.502,7.998-5.874s12.002-2.124,20-2.124c7.5,0.498,17.998-1.25,28.877-4.253
	s22.129-7.251,31.123-11.753c15-7.998,22.998-11.748,27.256-11.494c4.248,0.244,4.746,4.502,4.746,12.5
	c0,6.494,0.752,10,2.627,10.747c1.875,0.752,4.873-1.245,9.375-5.747c10.498-10.498,18.252-13.75,22.5-10.254
	c4.248,3.506,4.99,13.755,1.494,30.254c-1.992,8.999-6.748,19.746-12.871,29.746s-13.623,19.253-21.123,25.254
	c-21.494,17.998-34.248,24.497-36.377,21.621S1071.992,1073.496,1092.998,1053.999z M1195.996,1072.002
	c-1.504-2.5-3.242-7.5-5-13.75c-1.748-6.25-3.496-13.75-5-21.25c-1.992-10.498-2.246-16.748-0.371-19.751
	c1.875-2.998,5.879-2.749,12.373-0.249c4.502,2.002,7.256,3.999,8.008,5.874s-0.498,3.623-4.004,5.122
	c-3.506,1.001-5.498,3.75-5.879,8.379c-0.371,4.624,0.879,11.123,3.877,19.624c4.502,11.499,6.25,19.751,5.498,22.998
	C1204.746,1082.251,1201.504,1080.498,1195.996,1072.002z M822.002,1048.999c-6.504-2.5-13.252-4.248-18.877-5.122
	c-5.625-0.879-10.127-0.879-12.124,0.122c-1.997,1.499-6.748,0-12.876-3.623c-6.123-3.628-13.623-9.38-21.123-16.377
	c-11.001-10.503-17.5-16.001-21.001-16.997c-3.501-1.001-3.999,2.5-3.003,10c0.498,5,0,9.751-1.372,13.501
	c-1.377,3.745-3.628,6.499-6.626,7.495c-7.002,2.002-11.748-5-13.125-14.121c-1.377-9.126,0.625-20.376,7.124-26.875
	c6.997-7.002,22.251-4.502,35.874,2.5c13.628,6.997,25.625,18.496,26.128,29.497c0,6.499,0.249,9.751,1.25,9.629
	c1.001-0.127,2.749-3.628,5.747-10.63c2.5-5.996,5.249-9.746,8.623-11.25c3.379-1.499,7.378-0.752,12.378,2.251
	c3.999,2.5,8.75,4.502,13.252,5.625c4.497,1.128,8.745,1.377,11.748,0.376c24.497-7.5,41.001-11.25,51.377-11.25
	S900,1017.5,900,1025c0,6.001-10.249,15.498-22.002,22.998c-11.748,7.5-25,12.998-30.996,11.001c-0.498,0-3.75-1.001-8.379-2.749
	C833.999,1054.502,827.998,1052.002,822.002,1048.999z M781.001,982.998l-16.997-2.002l-17.002-1.992l20.996-20l21.001-20
	c11.499-10.996,23.003-20.254,32.251-26.377S837.5,903.496,840,905c2.998,1.504,5.498,1.748,7.251,0.869
	C848.999,905,850,902.998,850,900c0-4.004,1.499-5.996,4.751-5.996c3.247,0,8.247,1.992,15.249,5.996
	c6.001,3.496,14.751,5.498,24.873,5.996c10.127,0.508,21.626-0.498,33.125-2.998c26.504-5,40.503-7.5,49.502-7.5
	s12.998,2.5,19.502,7.5c3.496,2.5,8.252,4.248,13.125,5s9.873,0.498,13.877-0.996c4.492-2.002,7.744-2.256,9.492-1.006
	c1.758,1.25,2.012,4.004,0.508,8.008c-1.504,3.496,0.244,7.998,4.121,12.617c3.867,4.629,9.873,9.375,16.875,13.379
	c15.996,8.496,24.248,16.504,24.502,21.377c0.244,4.873-7.51,6.631-23.506,2.627c-6.504-1.504-14.492-1.758-22.246-1.006
	s-15.254,2.5-20.752,5c-10.498,5.498-55.996,11.006-105.122,14.248C858.75,985.498,806.001,986.504,781.001,982.998z M960,957.998
	c15.498,0.498,30.498-1.748,41.626-5.615c11.128-3.877,18.374-9.375,18.374-15.381c0-8.506-22.998-13.75-55-15
	c-32.002-1.26-72.998,1.494-108.999,8.994c-25.503,5.508-39.502,9.004-45.249,12.5c-5.752,3.506-23.013,11.289-15.513,16.787
	c6.001,4.502,34.761,2.969,47.012,4.092S870,965,888.999,962.998c15.503-1.494,31.25-2.744,44.126-3.623
	S956.001,957.998,960,957.998z M1160,865c-4.004-4.502-5.996-8.252-6.25-10.879c-0.254-2.617,1.25-4.121,4.248-4.121
	c6.006,0,12.5,4.746,16.631,10.371c4.121,5.625,5.879,12.129,2.373,15.625c-1.006,0.996-3.506,0.508-6.631-1.367
	C1167.246,872.754,1163.496,869.502,1160,865z M762.002,850c0-7.002,0.498-11.758,1.372-13.877c0.874-2.129,2.124-1.631,3.628,1.875
	c0.996,2.998,1.499,7.5,1.499,12.129c0,4.619-0.503,9.365-1.499,12.871c-1.504,2.998-2.754,3.252-3.628,1.006
	S762.002,857.002,762.002,850z M830,860.996c0-2.5,1.25-5.752,3.125-8.75S837.5,846.504,840,845
	c2.998-1.504,5.498-2.002,7.251-1.377c1.748,0.625,2.749,2.373,2.749,5.381c0,2.5-1.001,5.752-2.749,8.75
	c-1.753,2.998-4.253,5.742-7.251,7.246c-2.5,1.504-5,2.002-6.875,1.377S830,864.004,830,860.996z M860,854.004
	c0-5,1.499-8.496,4.126-10.381c2.622-1.875,6.372-2.119,10.874-0.625c3.999,2.002,8.252,2.5,11.875,1.875S893.501,842.5,895,840
	c2.998-4.502,8.999-6.504,16.499-5.996c7.5,0.498,16.499,3.496,25.503,8.994c2.998,2.002,7.5,2.998,12.373,3.125
	s10.127-0.615,14.624-2.119s8.501-2.002,11.377-1.377S980,845,980,847.998c0,8.506-13.501,14.004-28.501,15.381
	c-15,1.367-31.499-1.377-37.5-9.375c-5-6.504-7.998-9.756-10.498-9.629c-2.5,0.117-4.497,3.623-7.5,10.625
	c-3.501,10-12.5,14.746-20.625,14.502S860,864.004,860,854.004z M1060,839.004c0-2.5,1.25-4.248,3.125-5s4.375-0.508,6.875,0.996
	c2.998,1.504,5.498,3.496,7.246,5.498c1.758,2.002,2.754,3.994,2.754,5.498c0,0.996-0.996,2.002-2.754,2.754
	c-1.748,0.752-4.248,1.25-7.246,1.25c-2.5,0-5-1.25-6.875-3.252S1060,842.002,1060,839.004z M880,789.004c0-2.5,1.25-4.248,3.125-5
	S887.5,783.496,890,785c2.998,1.504,5.498,3.496,7.251,5.498c1.748,2.002,2.749,3.994,2.749,5.498c0,0.996-1.001,2.002-2.749,2.754
	c-1.753,0.752-4.253,1.25-7.251,1.25c-2.5,0-5-1.25-6.875-3.252S880,792.002,880,789.004z M715,780c1.499-2.5,3.496-5,5.498-6.875
	s4.004-3.125,5.503-3.125c1.001,0,1.997,1.25,2.749,3.125S730,777.5,730,780c0,2.998-1.25,5.498-3.252,7.246
	c-1.997,1.758-4.746,2.754-7.749,2.754c-2.5,0-4.248-0.996-5-2.754C713.252,785.498,713.501,782.998,715,780z M825,779.004
	c-2.002-3.008-3.252-6.25-3.623-9.131c-0.376-2.881,0.122-5.381,1.621-6.875c3.501-3.506,10.254-2.002,16.128,1.875
	S850,775,850,780.996s-4.248,9.004-9.502,8.75C835.249,789.502,828.999,785.996,825,779.004z M670,772.002
	c0-2.5,1.499-9.502,3.999-18.623s6.001-20.371,10-31.377c4.497-12.998,7.251-23.75,7.998-32.129
	c0.752-8.369-0.498-14.365-3.999-17.871c-2.5-2.5-5.249-6.504-7.5-10.752c-2.246-4.248-3.994-8.75-4.497-12.246
	c-1.001-4.004-2.5-9.502-4.253-15.127c-1.748-5.625-3.75-11.377-5.747-15.879s-3.247-9.746-3.623-14.492
	c-0.376-4.756,0.122-9.004,1.621-11.504c4.497-7.002-8.999-24.756-27.749-41.875c-18.75-17.129-42.749-33.623-59.248-38.125
	c-12.5-2.998-19.248-5.254-21.377-8.125c-2.124-2.881,0.376-6.377,6.377-11.875c5.996-5,11.997-6.25,21.372-2.5
	s22.124,12.5,41.626,27.5L648.999,535l23.999,17.998l-3.496-14.502l-3.501-14.492c-3.999-15.508-12.251-31.504-21.504-43.633
	C635.249,468.252,625,460,617.002,460c-2.5,0-3.252,2.002-2.5,5.127c0.747,3.125,2.998,7.373,6.499,11.875
	c5.503,6.494,7.5,9.746,5.498,9.502c-1.997-0.254-8.003-4.004-18.501-11.504c-7.5-5.498-15-12.5-21.001-19.375
	S576.499,442.002,575,437.002c-2.002-4.502-4.751-8.252-7.627-10.498c-2.871-2.256-5.874-3.008-8.374-1.504
	c-2.5,2.002-3.75,0.752-3.623-2.871c0.122-3.633,1.626-9.629,4.624-17.129c3.999-10.498,5.498-18.496,4.126-26.504
	c-1.377-7.998-5.625-15.996-13.125-26.494c-5-7.5-11.499-18.75-18.125-30.879c-6.626-12.119-13.374-25.127-18.877-36.123
	c-5-10.996-12.998-27.246-21.997-44.502C482.998,223.252,472.998,205,463.999,190c-8.501-15-18.75-33.252-28.374-50.498
	c-9.624-17.256-18.623-33.506-24.624-44.502c-7.5-14.004-12.749-22.5-16.25-25.752s-5.249-1.25-5.752,5.752c0,10,0,15-1.001,15
	c-0.996,0-2.998-5-6.997-15c-10.503-25.996-15.752-43.75-15.874-55.127C365,8.496,370,3.496,380,2.998
	c6.001-0.498,11.001,0.498,14.502,2.754C397.998,7.998,400,11.504,400,15.996c0,4.004,7.002,20.752,18.252,44.629
	s26.748,54.873,43.75,87.373c17.002,32.002,33.999,64.756,47.749,91.504s24.248,47.5,28.247,55.498
	c15,30.996,33.999,63.75,53.125,92.5s38.379,53.496,53.877,68.496c14.502,13.496,22.998,23.496,28.623,37.754
	c5.625,14.248,8.379,32.754,11.377,63.252c2.002,19.502,5,40,8.374,57.119c3.374,17.129,7.124,30.879,10.625,36.875
	c8.999,17.002,11.001,43.75,7.876,67.881c-3.125,24.121-11.377,45.615-22.876,52.119c-5.503,2.5-10.249,4.004-13.623,4.258
	C672.002,775.498,670,774.502,670,772.002z M590,405.996c0-1.504-1.001-3.496-2.749-5.498c-1.753-2.002-4.253-3.994-7.251-5.498
	c-2.5-1.504-5-1.748-6.875-0.996s-3.125,2.5-3.125,5c0,2.998,1.25,5.742,3.125,7.744S577.5,410,580,410
	c2.998,0,5.498-0.498,7.251-1.25C588.999,407.998,590,406.992,590,405.996z M1255.801,647.715c0-10,93.799-54.941,123.418-83.691
	c29.629-28.75,61.875-55,72.383-55c10,0,24.502-6.504,35.625-14.004s18.867-15.996,15.371-20c-7.5-6.992-32.998,3.506-64.248,23.633
	c-31.25,20.117-68.252,49.863-98.75,81.367l-34.502,35.508L1244.365,625 M1177.002,752.998c-1.494-2.5-3.496-8.252-5.625-15.625
	c-2.119-7.373-4.375-16.377-6.377-25.371c-1.504-8.994-5.254-18.252-10-25.879S1144.502,672.5,1139.004,670
	c-5-2.998-9.746-7.246-13.252-11.748S1120,649.004,1120,645s-0.996-7.754-2.754-10.498c-1.748-2.754-4.248-4.502-7.246-4.502
	c-2.5,0-4.502,1.504-5.625,3.877s-1.367,5.615-0.371,9.121c0.498,2.998,0.742,5.254,0.625,6.25c-0.127,1.006-0.625,0.752-1.631-1.25
	c-1.494-2.002-2.744-4.746-3.623-7.5c-0.879-2.744-1.377-5.498-1.377-7.5c-0.498-8.506-24.746-26.748-51.123-42.129
	c-26.377-15.371-54.873-27.871-63.877-24.873c-6.499,2.002-10,2.754-10.747,2.256c-0.752-0.498,1.245-2.256,5.747-5.254
	c4.502-3.506,4.253-7.5-1.372-12.871c-5.625-5.381-16.626-12.119-33.628-21.123C930,522.5,916.499,515,905.376,508.379
	c-11.128-6.631-19.878-12.383-23.374-15.381c-10.498-10-24.502-13.75-38.999-11.748c-14.502,2.002-29.502,9.746-42.002,22.754
	c-10,10.498-15.249,16.748-16.25,22.119c-1.001,5.381,2.251,9.873,9.248,16.875c6.997,6.494,10.498,10.498,10.498,14.375
	s-3.501,7.627-10.498,13.623c-5.503,4.502-8.999,10-10.498,17.5S782.5,605.498,785,617.998c2.002,11.494,2.749,19.502,1.997,24.004
	c-0.747,4.502-2.998,5.498-6.997,2.998c-2.5-1.504-4.502-4.248-5.498-7.246c-1.001-2.998-1.001-6.25,0.498-8.75
	c2.002-2.5,2.5-4.746,1.875-6.377S774.502,620,772.002,620c-5.498,0-6.25-12.002-4.126-24.873C770,582.246,775,568.496,781.001,565
	c4.497-2.998,4.751-11.748,2.5-19.746c-2.251-8.008-6.997-15.254-12.5-15.254s-16.25,14.746-24.878,30.752
	c-8.623,16.006-15.127,33.252-12.124,38.252c1.997,2.5,2.5,7.5,1.875,13.496c-0.625,6.006-2.373,13.008-4.873,19.502
	c-3.999,10-6.499,14.248-8.003,11.504c-1.499-2.754-1.997-12.51-1.997-30.508c-0.503-17.998,1.001-30.752,7.124-44.502
	S745,540,762.998,517.998c18.501-22.002,30.752-35.244,41.377-42.744s19.629-9.258,31.626-8.252
	c13.999,1.006,32.251,6.25,48.374,12.871c16.123,6.631,30.127,14.619,35.625,21.123c1.499,2.002,8.999,6.758,19.873,12.881
	C950.752,520,965,527.5,980,535c45.996,22.998,90.254,50.742,125.625,77.744s61.875,53.252,72.373,73.252
	c2.998,5.508,5,13.252,5.879,21.25c0.869,8.008,0.615,16.25-0.879,22.754c-2.002,7.998-2.744,13.242-2.002,15.869
	c0.752,2.627,3.008,2.627,7.002,0.127c3.506-1.992,6.504-2.5,8.623-1.865c2.129,0.625,3.379,2.373,3.379,4.873
	c0,6.504-4.248,10.254-9.248,10.996C1185.752,760.752,1180,758.496,1177.002,752.998z M656.001,737.002
	c1.499-5,3.75-8.75,6.001-10.879c2.246-2.119,4.497-2.627,5.996-1.123c1.504,1.504,1.504,4.248,0.254,7.5
	c-1.25,3.242-3.75,6.992-7.251,10.498c-5,4.502-7.749,6.504-8.501,5.625C651.748,747.754,652.998,744.004,656.001,737.002z
	 M996.001,732.998c-3.003-7.002-4.253-10.752-3.501-11.621c0.752-0.879,3.501,1.123,8.501,5.625
	c3.501,3.506,6.001,7.256,7.251,10.498c1.24,3.252,1.24,5.996-0.254,7.5s-3.75,0.996-5.996-1.123
	C999.751,741.748,997.5,737.998,996.001,732.998z M1209.004,740c-2.002-20.498,7.5-57.998,20.117-90.371
	C1241.748,617.246,1257.5,590,1267.998,590c2.998,0,6.006,0.498,8.252,1.377c2.246,0.869,3.75,2.119,3.75,3.623
	c0,6.504-6.504,21.748-14.375,36.25c-7.871,14.492-17.129,28.242-22.627,31.748c-3.506,2.002-6.25,6.748-7.871,12.627
	c-1.631,5.879-2.119,12.871-1.123,19.375s0.498,14.502-1.133,22.129c-1.621,7.617-4.375,14.873-7.871,19.873
	c-5.996,7.002-9.746,10.752-12.129,11.25C1210.498,748.75,1209.502,745.996,1209.004,740z M657.998,670.996
	c-7.5-9.004-11.25-14.248-11.25-18.75c0-4.492,3.75-8.242,11.25-14.248c5.498-4.502,9.004-6.748,10.376-6.865
	c1.377-0.127,0.63,1.875-2.373,5.869c-1.997,3.506-2.5,9.004-1.753,15c0.752,6.006,2.754,12.5,5.752,17.998
	c7.002,12.5,9.248,19.004,7.124,19.248S668.496,683.496,657.998,670.996z M1280,569.004c-3.496-9.502-10.752-26.25-19.375-45.752
	c-8.633-19.502-18.633-41.748-27.627-62.256c-9.502-20.498-24.502-57.744-41.123-101.25c-16.621-43.496-34.883-93.242-50.879-138.75
	c-16.504-45.498-32.5-90-45.117-125c-12.627-35-21.875-60.498-24.883-67.998c-4.492-11.494-6.494-18.496-5.869-22.627
	C1065.752,1.25,1069.004,0,1075,0c4.004,0,7.754,1.748,10.498,4.629c2.754,2.871,4.502,6.875,4.502,11.367
	c0,4.502,1.25,7.5,3.379,8.877c2.119,1.377,5.117,1.123,8.623-0.869c3.994-2.5,6.25-2.998,7.002-1.504c0.742,1.504,0,5-2.002,10.498
	c-4.502,11.494-4.004,23.252,0.127,32.129C1111.25,74.004,1119.004,80,1129.004,80c6.992,0,10.498,0.498,10.625,2.002
	c0.117,1.494-3.125,3.994-9.629,7.998c-5.996,4.004-9.004,7.002-9.248,9.746c-0.254,2.754,2.246,5.254,7.246,8.252
	c3.506,2.5,7.002,7.5,9.873,13.496c2.881,6.006,5.137,12.998,6.133,19.502c1.992,18.496,5.996,32.246,10.869,39.248
	s10.625,7.256,16.123-1.24c3.008-5,5.254-7.5,6.758-7.754c1.494-0.244,2.246,1.758,2.246,5.752c0,3.506-1.748,7.5-4.629,11.25
	c-2.871,3.75-6.875,7.246-11.367,9.746c-5.508,2.998-8.75,6.006-9.756,8.75c-1.006,2.754,0.244,5.254,3.75,7.256
	c2.998,1.504,6.25,1.992,9.248,1.367c3.008-0.625,5.752-2.373,7.754-5.371c4.004-6.504,10.254-9.746,15.498-9.629
	c5.254,0.127,9.502,3.633,9.502,10.625c0,2.5-1.25,4.248-3.379,4.873c-2.119,0.635-5.117,0.127-8.623-1.865
	c-3.506-2.5-5.752-2.998-6.621-1.504c-0.879,1.504-0.381,5,1.621,10.498c2.002,6.006,2.256,9.756,0.508,11.504
	s-5.498,1.494-11.504-0.498c-7.5-2.5-11.006-3.496-10.752-2.256c0.254,1.25,4.248,4.756,11.748,11.25
	c6.494,5.498,10.752,11.006,12.754,16.875c2.002,5.879,1.748,12.129-0.752,19.131c-2.002,5.996-2.5,11.25-1.748,15
	s2.744,5.996,5.752,5.996c2.998,0,5.742,2.002,7.744,5.254c2.002,3.242,3.252,7.744,3.252,12.744c0,4.502,2.998,14.502,7.627,26.748
	c4.619,12.256,10.869,26.758,17.373,40.254c7.002,14.004,13.252,27.754,17.754,38.877c4.492,11.123,7.246,19.619,7.246,23.125
	c0,2.998,1.504,6.748,3.877,10.244c2.373,3.506,5.615,6.758,9.121,8.75c2.998,2.002,5.254,3.008,6.25,2.881
	c1.006-0.127,0.752-1.377-1.25-3.877c-5-5-2.5-16.25,3.125-26.25s14.375-18.75,21.875-18.75c3.506,0,7.998-2.246,12.5-5.879
	c4.502-3.623,8.994-8.623,12.5-14.121s8.252-10.498,13.125-14.121c4.873-3.633,9.873-5.879,13.877-5.879s7.754-2.002,10.625-5.127
	s4.873-7.373,5.371-11.875c0-6.006,0.498-9.248,1.504-10c0.996-0.752,2.5,1.006,4.502,5c2.5,7.002-11.25,27.5-27.871,46.25
	C1322.5,422.998,1303.008,440,1294.004,440c-12.5,0-17.754,17.5-16.377,40.625s9.365,51.875,23.369,74.375
	c2.002,2.998,2.754,7.754,2.627,12.998c-0.127,5.254-1.123,11.006-2.627,16.006c-2.998,7.998-5.244,11.494-8.242,9.375
	C1289.746,591.25,1285.996,583.496,1280,569.004z M820,540c0-2.5,1.25-5,3.125-6.875S827.5,530,830,530
	c2.998,0,5.498,1.25,7.251,3.125C838.999,535,840,537.5,840,540c0,2.998-1.001,5.498-2.749,7.246
	C835.498,549.004,832.998,550,830,550c-2.5,0-5-0.996-6.875-2.754C821.25,545.498,820,542.998,820,540z M308.999,462.002
	c2.5-7.998,6.001-17.754,9.624-27.002c3.623-9.258,7.373-18.008,10.376-24.004c5-8.496,7.251-14.746,6.626-20.371
	S331.499,380,325,374.004c-3.999-4.004-7.749-9.502-10.498-15c-2.754-5.508-4.502-10.996-4.502-15s-0.752-7.256-2.002-9.512
	c-1.25-2.246-2.998-3.496-5-3.496c-10,1.504-16.748,1.006-19.248-0.996c-2.5-1.992-0.752-5.498,6.25-10
	c6.001-4.004,9.004-7.754,8.75-15.996c-0.249-8.252-3.75-21.006-10.752-43.008c-4.502-14.004-7.5-26.748-8.75-35.996
	s-0.747-15,1.753-15c14.497,0,26.748-25,33.501-59.004C321.25,117.002,322.5,74.004,315,37.998
	c-2.5-12.002-3.252-21.494-2.627-27.998S315,0,317.998,0c5,0,8.501,3.252,12.5,16.621c4.004,13.379,8.506,36.875,15.503,77.383
	c2.5,13.496,3.247,22.744,2.5,27.988c-0.752,5.254-3.003,6.504-6.499,4.004c-3.501-1.992-6.25-1.25-8.125,2.256
	s-2.876,9.756-2.876,18.75c0,23.994-1.001,39.746-3.623,49.502c-2.627,9.746-6.88,13.496-13.379,13.496
	c-10.503,0-16.001,5.752-16.25,19.004c-0.249,13.242,4.751,33.994,15.249,63.994c9.004,27.002,25,53.75,42.505,73.75
	c17.5,20,36.499,33.252,51.499,33.252c2.998,0,6.997,1.504,10.996,4.004s7.998,5.996,11.001,10c3.501,4.004,10,8.496,17.627,12.373
	c7.622,3.877,16.372,7.119,24.375,8.623c25.503,5.498,45.752,19.492,53.75,31.367C570.151,533.74,568.257,492.773,505,485
	c-13.999-1.504-25.752-5.254-31.123-8.623c-5.376-3.379-4.375-6.377,7.124-6.377c3.999,0,4.248-2.246,1.372-5.879
	c-2.871-3.623-8.872-8.623-17.373-14.121c-16.499-10.996-28.999-17.5-36.123-19.248c-7.129-1.748-8.877,1.25-3.877,9.248
	c1.499,2.998,2.002,5.498,1.377,7.246c-0.625,1.758-2.373,2.754-5.376,2.754c-2.5,0-6.001-1.504-9.375-4.004s-6.626-5.996-8.628-10
	c-2.002-3.496-6.499-7.998-11.997-12.373c-5.503-4.375-12.002-8.623-18.003-11.621c-10-5.498-15.498-7.754-19.248-3.877
	c-3.75,3.867-5.752,13.867-8.75,32.871c-2.002,10.996-4.248,20.508-6.499,26.875c-2.251,6.377-4.497,9.629-6.499,8.125
	c-1.504-1.504-4.253-1.748-7.5-0.869c-3.252,0.869-7.002,2.871-10.503,5.869c-5.503,4.502-8.252,5.752-8.877,2.881
	C304.497,480.996,305.996,474.004,308.999,462.002z M1622.998,455c-8.994-10-135.996,30.742-132.998,25
	c2.998-5.752,135.996-57.998,155.996-70c20.996-13.496,34.258-19.004,38.125-17.246c3.877,1.748-1.621,10.742-18.125,26.25
	c-6.992,6.504-12.5,13.75-15.869,20.371s-4.619,12.617-3.125,16.621c3.506,9.004,1.504,13.252-3.369,13.008
	C1638.75,468.75,1630.996,464.004,1622.998,455z M730,400c-15-13.496-31.748-27.246-46.626-38.379
	c-14.878-11.123-27.876-19.619-35.376-22.617c-7.998-3.008-15-6.758-20-10.381S620,321.504,620,319.004
	c0-8.008,3.999-10.254,15.127-5.625c11.123,4.619,29.375,16.123,57.871,35.625c15,10.996,29.502,20.244,40.625,26.24
	c11.128,6.006,18.877,8.76,20.376,6.758c1.499-1.494,3.003-0.996,4.126,0.879s1.875,5.127,1.875,9.121
	c0,4.502,2.998,10.996,7.998,17.744c5,6.758,12.002,13.75,20,19.258c8.501,6.504,13.75,11.504,15.752,15s0.752,5.498-3.75,5.996
	c-3.999,0-13.999-5.752-26.748-14.873C760.498,425.996,745,413.496,730,400z M516.001,342.002
	c-30.503-50-52.251-88.252-65.503-115.371c-13.247-27.129-17.998-43.135-14.497-48.633c1.997-2.998,2.749-5,2.251-5.869
	c-0.503-0.879-2.256-0.625-5.254,0.869c-5,2.998-8.999,2.002-14.497-7.744c-5.503-9.746-12.5-28.252-23.501-60.254
	c-2.002-5.498,0.249-4.248,5.376,2.129c5.122,6.367,13.12,17.871,22.622,32.871c10,15,18.252,29.502,23.75,40.752
	c5.503,11.25,8.252,19.248,7.251,21.25c-1.499,2.002-1.499,3.994-0.498,5.498s2.998,2.5,5.498,2.5c3.003,0,5.752,2.002,7.749,5.254
	c2.002,3.242,3.252,7.744,3.252,12.744s1.748,12.002,4.751,19.375s7.251,15.127,12.251,21.631
	c11.499,16.504,27.5,44.746,40.249,69.375c12.749,24.619,22.251,45.625,20.747,47.617c-0.996,0.996-5.249-3.496-11.123-11.494
	S523.501,355,516.001,342.002z M872.998,367.998c-8.999-6.494-18.496-14.746-26.499-22.998c-7.998-8.252-14.497-16.504-17.5-22.998
	c-3.501-6.006-7.998-11.25-12.5-14.629c-4.497-3.369-8.999-4.873-12.5-3.369c-3.999,1.504-6.748,1.25-7.998-0.508
	c-1.25-1.748-1.001-5,1.001-9.492c2.998-8.008,8.75-12.754,13.75-13.75c5-1.006,9.248,1.748,9.248,8.75
	c0,2.5,4.751,9.502,12.373,18.623c7.627,9.131,18.125,20.381,29.629,31.377l21.499,20l21.499,20l12.5-11.504l12.5-11.504
	c14.502-13.496,42.002-30.996,65.874-43.75c23.872-12.744,44.126-20.742,44.126-15.244c0,2.5-5.498,7.5-14.375,13.75
	s-21.123,13.75-34.624,21.25c-13.003,7.5-26.499,15.996-37.627,23.75C942.251,363.496,933.501,370.498,930,375
	c-7.998,10-12.749,14.746-20.249,13.75S892.002,380.996,872.998,367.998z M732.002,345.996c-4.502-10-6.504-16.25-5.752-20.625
	s4.248-6.875,10.752-9.375c4.502-1.992,8.999-2.998,12.749-3.125c3.75-0.117,6.748,0.625,8.247,2.129
	c1.504,1.504,1.504,2.754,0.254,3.623c-1.25,0.879-3.75,1.377-7.251,1.377c-3.999,0-6.25,1.25-6.499,4.248
	c-0.254,2.998,1.499,7.754,5.498,14.756c6.001,11.992,9.248,19.746,9.624,24.492C760,368.252,757.5,370,752.002,370
	c-2.5,0-6.001-2.754-9.629-7.129C738.75,358.496,735,352.5,732.002,345.996z M1627.715,430c0-2.5,184.531-94.258,188.037-96.748
	c3.506-2.5,8.252-4.756,13.252-6.25c6.992-1.494,11.494-1.748,13.75-0.381c2.246,1.377,20.625-125.742,18.623-120.742
	c-2.998,7.5-29.629,142.363-37.129,143.496C1816.748,350.498,1627.715,437.002,1627.715,430z M720,290
	c0-2.998-2.251-7.998-5.874-13.75c-3.628-5.752-8.628-12.246-14.126-18.252c-10-11.006-16.748-22.002-18.999-28.994
	c-2.251-7.002-0.005-10,7.998-5c2.5,1.992,5.249,2.5,7.627,1.865c2.373-0.625,4.375-2.373,5.376-4.873
	c0.498-2.5,3.247-3.496,7.119-2.871c3.877,0.625,8.877,2.871,13.877,6.875c10.498,7.5,17.5,24.004,19.629,39.375
	c2.124,15.371-0.625,29.629-9.629,32.627c-3.496,1.494-6.748,1.494-9.121,0.244C721.499,295.996,720,293.496,720,290z
	 M777.998,257.998c8.501-8.506,12.251-15.498,11.377-19.629c-0.879-4.121-6.377-5.371-16.377-2.373
	c-7.002,2.002-10.498,2.754-10.376,1.758c0.127-0.996,3.877-3.75,11.377-8.75c7.5-4.502,12.749-6.758,16.499-6.875
	c3.75-0.127,6.001,1.875,7.5,5.869c1.001,3.506,4.004,6.504,8.125,8.623c4.126,2.129,9.375,3.379,14.878,3.379
	c13.003,0,18.999,4.004,18.374,9.004s-7.876,10.996-21.377,15c-19.502,5-32.998,7.002-39.873,5.996
	C771.25,269.004,770.996,265,777.998,257.998z M822.002,222.998c-3.501-1.494-8.501-6.25-13.628-12.744
	c-5.122-6.504-10.376-14.746-14.375-23.252l-8.003-15l-7.998-15l15,12.002l15,11.992c8.501,6.504,16.25,14.004,21.875,20.752
	s9.126,12.744,9.126,16.25c0.503,2.998,0.503,6.006,0.249,8.125c-0.249,2.129-0.752,3.379-1.25,2.881
	c-0.996,0-3.247-0.752-6.123-1.875C828.999,225.996,825.498,224.492,822.002,222.998z M657.002,149.004
	c-5-17.5-9.502-35-12.876-49.004c-3.374-13.994-5.63-24.492-6.128-27.998s-2.246-6.25-4.873-7.754
	c-2.627-1.494-6.123-1.748-10.127-0.244c-7.5,2.998-12.002,0.498-12.622-3.877c-0.625-4.375,2.622-10.625,10.625-15.127
	c6.997-4.502,11.499-5.254,16.25,0.625S647.002,64.004,655,85.996c5,15.508,8.501,24.004,11.377,26.631
	c2.871,2.627,5.122-0.625,7.622-8.623c3.501-10.996,17.002-25.752,30.752-36.631c13.75-10.869,27.749-17.871,32.251-13.369
	c2.002,1.504-0.498,6.992-6.001,14.746c-5.498,7.754-13.999,17.754-23.999,28.252c-17.002,16.494-28.252,29.746-33.501,38.877
	C668.252,145,669.004,150,676.001,150c1.499,0,4.497-1.748,8.247-4.502c3.75-2.744,8.252-6.494,12.754-10.498
	c7.998-8.496,17.246-10.996,23.496-8.877c6.25,2.129,9.502,8.877,5.503,18.877c-1.001,3.496-0.752,7.998,0.498,12.373
	s3.501,8.623,6.499,11.631c4.004,4.004,6.001,6.748,6.001,8.496s-1.997,2.5-6.001,2.5c-2.998,0-6.25-1.504-9.121-3.75
	c-2.876-2.246-5.376-5.254-6.875-8.252c-2.002-5-3.75-7.5-6.377-7.5s-6.123,2.5-11.626,7.5c-4.497,4.502-6.997,7.5-7.251,9.375
	c-0.249,1.875,1.748,2.627,6.25,2.627c3.501,0,6.504,1.25,8.628,3.252s3.374,4.746,3.374,7.744c0,3.008-1.499,5.254-3.999,6.377
	s-6.001,1.123-10-0.371s-8.003-1.748-11.25-0.879c-3.252,0.879-5.752,2.881-6.753,5.879c-1.499,3.506-4.497-0.752-8.247-10.371
	C666.001,182.002,661.504,167.002,657.002,149.004z M1812.754,113.623c-8.506-15,0,0,0,36.377c0.752-3.252,33.75,15,43.242,24.004
	c4.004,4.492,7.5,10,9.629,15.244s-35.127,134.248-36.621,137.754c-1.006,3.506,35-119.502,32.373-121.123
	C1858.75,204.248,1816.26,120.625,1812.754,113.623z M751.001,142.998c0-6.494-1.25-12.246-3.252-16.377
	C745.752,122.5,742.998,120,740,120c-2.5,0-5-1.25-6.875-3.252S730,112.002,730,109.004c0-4.004,1.001-6.006,3.252-6.006
	c2.246,0,5.747,2.002,10.747,6.006c5,4.492,8.75,6.494,11.875,5.869s5.625-3.877,8.125-9.873c1.499-4.004,4.751-7.754,8.877-10.498
	c4.126-2.754,9.126-4.502,14.126-4.502c7.998,0.498,11.997,1.25,11.621,3.877s-5.127,7.119-14.624,15.127
	c-6.001,4.492-11.997,10.996-16.875,17.744c-4.873,6.748-8.623,13.75-10.122,19.248c-2.002,8.008-3.252,12.002-4.126,11.631
	C752.002,157.246,751.504,152.5,751.001,142.998z M1797.002,84.004c-7.5-18.008-14.248-35.508-18.877-49.258
	s-7.129-23.75-6.123-26.748c2.002-5,5.498-2.998,12.617,9.746c7.129,12.754,17.881,36.26,34.385,74.258
	c11.504,26.006,17.754,40.498,19.746,48.496c2.002,7.998-0.254,9.502-5.752,9.502c-2.5,0-7.744-7.5-14.248-19.502
	S1804.502,102.002,1797.002,84.004z M367.002,105c-4.502-9.502-7.754-18.252-9.253-24.629C356.25,74.004,356.499,70,358.999,70
	c4.497,0,12.998,15,19.624,30.752s11.377,32.246,8.379,35.244c-1.001,0.996-3.75-1.992-7.378-7.617
	C376.001,122.754,371.504,114.502,367.002,105z M702.998,19.004c-0.498-5,0.752-9.746,3.125-13.252
	C708.501,2.246,712.002,0,716.001,0c8.501,0,12.998,3.496,13.247,8.75c0.254,5.254-3.75,12.246-12.246,19.248
	c-5,3.994-8.252,5.498-10.376,4.131C704.502,30.752,703.496,26.504,702.998,19.004z M627.002,24.004
	c-6.001-6.504-5-12.5,1.25-16.875S646.001,0,661.001,0c9.497,0,16.499,0.996,20.625,2.871S687.002,7.5,685,10.996
	c-2.002,3.008-5.249,5-8.872,5.879C672.5,17.754,668.501,17.5,665,15.996C661.499,15,657.246,15,653.247,15.879
	c-3.999,0.869-7.749,2.617-10.249,5.117S637.5,25,634.624,25.498S629.004,25.508,627.002,24.004z"/>
</svg>
