<?xml version="1.0" encoding="utf-8"?>
<!-- Generator: Adobe Illustrator 16.0.0, SVG Export Plug-In . SVG Version: 6.00 Build 0)  -->
<!DOCTYPE svg PUBLIC "-//W3C//DTD SVG 1.1//EN" "http://www.w3.org/Graphics/SVG/1.1/DTD/svg11.dtd">
<svg version="1.1" id="Layer_1" xmlns="http://www.w3.org/2000/svg" xmlns:xlink="http://www.w3.org/1999/xlink" x="0px" y="0px"
	 width="200px" height="200px" viewBox="0 0 200 200" enable-background="new 0 0 200 200" xml:space="preserve">
<path transform="translate(0.000000,200.000000) scale(0.100000,-0.100000)" fill="none" d="M937.002,1713.999
	c1.499-3.999,3.496-6.997,5.747-8.623s4.751-1.875,7.251-0.376c2.002,1.001,6.001,0.498,10.752-1.377
	c4.746-1.875,10.249-5.127,15.249-9.624c8.999-6.997,13.501-10.747,12.876-11.875c-0.625-1.123-6.377,0.376-17.876,3.877
	c-8.999,2.5-14.502,3.247-17.002,2.124s-1.997-4.126,1.001-9.126c2.5-3.999,1.748-5-1.25-3.623
	c-2.998,1.372-8.252,5.122-14.751,10.625c-16.499,14.497-29.497,22.998-40.249,25.498c-10.747,2.5-19.248-1.001-26.748-10.498
	c-5-6.001-8.75-9.253-11.626-9.751c-2.876-0.503-4.878,1.748-6.377,6.748c-1.499,2.998-3.999,6.001-6.875,8.252
	s-6.128,3.75-9.126,3.75s-4.497-1.499-4.248-4.126c0.254-2.622,2.251-6.372,6.25-10.874c5-6.001,6.748-10,4.375-13.75
	s-8.877-7.251-20.376-12.251c-18.501-6.499-34.751-16.499-53.374-33.75s-39.629-41.753-67.627-77.251
	c-29.502-38.496-47.5-73.496-58.125-127.246s-13.872-126.25-13.872-239.751c0-86.499,1.001-138.003,3.999-164.624
	c2.998-26.626,7.998-28.379,16.001-15.376c6.001,10,8.75,19.248,8.374,23.75c-0.376,4.497-3.877,4.248-10.376-4.751
	c-3.501-5.498-5.498-5.249-5.996,1.25c-0.503,6.499,0.498,19.248,2.998,38.75c1.997,15,3.75,32.998,4.873,49.751
	c1.128,16.753,1.626,32.251,1.128,42.251s0,19.751,1.372,27.5c1.377,7.749,3.628,13.496,6.626,15.498c2.5,1.499,5,4.248,6.875,7.251
	c1.875,2.998,3.125,6.25,3.125,8.75c0,3.003-1.25,4.751-3.252,5.376c-1.997,0.625-4.746,0.122-7.749-1.377
	c-6.499-4.502-7.5,40-5,92.876S662.5,1432.002,670,1461.001c5.498,21.001,29.502,56.25,57.627,89.126
	c28.125,32.871,60.371,63.374,82.373,74.873c18.999,10,44.746,17.002,77.749,21.25s73.252,5.752,121.255,4.751
	c33.496-0.503,56.25-2.002,74.248-5.503c17.998-3.496,31.25-8.999,45.752-17.5c26.992-16.499,61.748-47.5,90.498-78.374
	s51.494-61.626,54.502-77.622c6.504-30,10-55.498,10.742-77.5c0.752-22.002-1.25-40.503-5.742-56.504
	c-2.5-8.999-6.504-29.497-10.879-55.371c-4.375-25.879-9.121-57.129-13.125-87.627c-10.996-86.001-19.746-147.998-26.875-189.873
	s-12.627-63.623-17.129-69.131c-1.992-2.998-3.994-7.5-5.498-12.246c-1.494-4.746-2.5-9.746-2.5-13.75c0-10-8.252-32.5-17.744-52.5
	C1175.752,837.5,1165,820,1160,820c-2.5,0-5.254,1.504-7.754,3.877s-4.746,5.615-6.25,9.121c-1.504,2.998-2.246,3.506-2.246,1.748
	c0-1.748,0.742-5.742,2.246-11.748c2.002-7.998,1.006-15-3.623-22.373c-4.619-7.373-12.871-15.127-25.371-24.629
	c-9.502-6.992-18.75-13.496-26.123-18.242c-7.383-4.756-12.881-7.754-14.883-7.754c-4.004,0,2.754,17.246,15.625,42.754
	c12.881,25.498,31.875,59.248,52.383,92.246c21.504,33.496,35,58.496,38.994,70.127c4.004,11.621-1.494,9.873-17.998-10.127
	c-7.002-7.998-18.008-24.746-30-45.127c-12.002-20.371-25-44.375-35.996-66.875c-11.504-22.998-25-46.494-37.5-65.869
	S1037.5,732.5,1030,725.996c-7.998-6.504-14.502-13.242-18.496-18.867c-4.004-5.625-5.508-10.127-3.506-12.129
	c2.002-2.5,2.256-3.75,1.133-3.877s-3.623,0.879-7.129,2.881c-3.501,1.992-9.502,1.992-16.504,0.371s-15-4.873-22.5-9.375
	c-8.999-5.996-18.75-10-30.249-12.002s-24.751-2.002-40.747,0c-18.501,2.002-31.504,5.254-44.253,12.373
	C835,692.5,822.5,703.496,805,720.996c-21.001,22.5-36.504,42.246-44.629,56.377S751.499,800,760,800
	c2.998,0,5.498,0.996,7.251,2.754c1.748,1.748,2.749,4.248,2.749,7.246c0,2.5-1.25,4.746-3.125,6.123s-4.375,1.885-6.875,0.879
	c-5-1.006-17.998,20.498-32.002,50C713.999,896.504,698.999,934.004,690,965c-2.5,8.496-4.502,23.75-5.625,41.626
	s-1.377,38.374-0.376,57.373c1.001,25.503,1.25,41.499,0.249,49.375c-0.996,7.876-3.247,7.622-7.246,0.625
	c-2.998-5.503-5.498-18.501-7.002-35.122c-1.499-16.626-2.002-36.875-1.001-56.875c0.503-27.5,2.749-49.248,7.5-70.127
	s11.997-40.879,22.5-64.873c8.003-17.002,16.499-36.748,23.75-55s13.247-35.01,16.25-46.006c2.5-10.498,7.002-22.5,12.124-33.369
	c5.127-10.879,10.879-20.635,15.879-26.631c6.499-7.998,9.248-11.748,7.622-11.123s-7.622,5.625-18.623,15.127l-13.999,12.5
	L727.998,755l11.001-22.5L750,710c10-19.502,16.001-30,20.376-33.506c4.375-3.496,7.124,0.01,10.625,8.506
	c3.999,10,6.001,15,6.997,15c1.001,0,1.001-5,1.001-15c0.503-12.5,17.749-28.75,40.127-41.875C851.499,630,878.999,620,900,620
	c19.502,0,45.498,7.998,73.125,21.875c27.622,13.877,56.875,33.633,82.871,57.129c39.502,35,64.756,56.748,81.377,69.375
	c16.631,12.617,24.629,16.113,29.629,14.619c3.994-1.494,14.248,16.25,26.748,44.248c12.5,28.008,27.246,66.25,40.254,105.752
	c1.504,5,5.254,9.248,10.625,12.256C1250,948.252,1257.002,950,1265,950c14.502,0,34.258,15.498,51.758,37.129
	c17.5,21.621,32.744,49.375,38.242,73.872c2.002,8.003,4.746,15.249,7.5,20.498s5.498,8.501,7.5,8.501c2.5,0,4.248,1.748,5,4.502
	c0.752,2.749,0.508,6.499-0.996,10.498c-2.002,3.999-2.256,7.749-1.133,10.498c1.133,2.754,3.633,4.502,7.129,4.502
	c4.502,0,6.758,1.001,7.002,3.125c0.254,2.124-1.494,5.371-5,9.873c-2.5,2.998-5.498,8.75-8.252,15.503
	c-2.754,6.748-5.254,14.497-6.748,21.499c-1.494,8.999-2.744,12.749-3.75,10.752c-1.006-2.002-1.748-9.751-2.256-23.75
	c0-10.498-2.002-24.004-5-37.378s-6.992-26.626-10.996-36.626c-4.004-9.502-7.754-20.249-10.498-29.873
	C1331.748,1043.501,1330,1035,1330,1030c0-10.498-13.496-27.998-29.746-42.871C1284.004,972.246,1265,960,1254.004,960
	c-5.996,0-9.258,2.5-10.381,10.371c-1.123,7.881-0.127,21.133,2.373,42.627c1.504,14.004,4.502,29.751,7.881,43.75
	c3.369,14.004,7.119,26.25,10.127,33.252c3.496,7.002,6.25,17.749,7.744,29.248c1.504,11.499,1.748,23.75,0.254,33.75
	c-1.494,14.502-1.748,23.75,0,29.375s5.498,7.627,12.002,7.627c5.996,0,10,2.749,12.617,9.502c2.627,6.748,3.877,17.5,4.375,33.496
	c0.508,11.504,1.504,24.751,2.754,36.875c1.25,12.129,2.754,23.125,4.248,30.127c6.494,30,7.5,73.75,4.248,115.874
	c-3.242,42.124-10.742,82.627-21.25,106.128c-11.504,25.498-41.992,62.5-73.125,93.125C1186.748,1645.752,1155,1670,1140.996,1670
	c-5,0-12.5,2.251-20.625,6.001s-16.875,8.999-24.375,15c-11.992,9.497-18.75,14.248-24.365,14.873
	c-5.625,0.625-10.127-2.876-17.627-9.873c-10.508-11.001-20.508-16.001-30-15.127c-9.502,0.874-18.496,7.627-27.002,20.127
	c-8.501,11.997-25.752,20.747-39.751,23.75C943.252,1727.749,932.5,1725,937.002,1713.999z M892.998,1675
	c-2.5-7.998-6.499-12.749-11.123-14.248c-4.624-1.504-9.873,0.249-14.873,5.249c-3.501,3.999,0.498,12.251,6.499,18.872
	c6.001,6.626,13.999,11.626,18.501,9.126c2.002-1.499,3.252-4.248,3.501-7.622C895.752,1682.998,895,1678.999,892.998,1675z
	 M1010.996,1721.001c-5.498-3.501-7.998-6.25-6.997-9.253c1.001-2.998,5.503-6.25,13.999-10.747c7.998-3.999,13.252-5.752,17.129-5
	c3.877,0.747,6.377,3.999,8.877,10c1.504,4.497,2.998,8.999,4.121,12.622c1.123,3.628,1.875,6.377,1.875,7.378
	c0,3.501-5.996,4.497-13.877,3.501C1028.242,1728.501,1018.496,1725.498,1010.996,1721.001z M858.999,1172.998l11.626,10.503
	L880,1185l12.749,9.126L910,1242.998l3.75,21.377l-9.751,5.625l-10,3.877l-3.999,9.121l-26.748,42.754l-70.254,20.249l-46.123,0.376
	L717.998,1340l-31.372-40.249l-3.628-23.75l15.127,10.874l18.877,16.123l28.75,15.127l51.25-2.124l69.746-22.627L890,1246.001
	l-10-35.503L870,1205l-4.624-0.127l-11.377-12.871l-9.497-18.252l-0.503-10.752l-0.498-9.751l-9.502-14.248l-11.499-36.001
	l27.5-20.996l22.998-7.378l20-12.622l18.501-9.878l21.499,5.874l25.879,8.877l31.123,5.127l28.379,6.748l9.619,17.251l-2.373,18.501
	L1015,1130l-11.25,5.249l2.246-23.247l1.133-24.502L985,1087.002l-25.498,0.249L933.999,1080l-22.876-7.876l-19.121,10.874
	l-19.253,12.251L852.002,1100l-21.377,13.999l24.375,20l17.749,8.999L880,1155l-4.375,9.248 M1040.996,1323.999
	c-15.498-6.499-26.748-16.997-30.498-24.375c-3.75-7.373,0-11.626,14.502-5.625c4.004,1.499,14.746,3.501,28.877,5.63
	c14.121,2.124,31.621,4.375,49.121,6.372c30.498,3.003,46.25,4.253,57.754,0.874c11.494-3.374,18.74-11.377,32.246-26.875
	c7.998-8.501,15.752-16.001,21.758-21.001c5.996-5,10.244-7.5,11.24-6.001c3.496,3.501-4.004,20-14.375,36.504
	c-10.371,16.499-23.623,32.998-31.621,36.499c-13.496,6.499-40.498,9.248-67.998,8.75
	C1084.502,1334.248,1056.504,1330.498,1040.996,1323.999z M770,1282.998c-12.5-5-27.5-15-38.501-24.502
	c-11.001-9.497-17.998-18.496-14.497-21.494c1.499-2.002,6.25-1.25,12.5,1.372c6.25,2.627,13.999,7.124,21.499,12.627
	c11.997,8.501,19.248,12.998,23.501,13.75c4.248,0.747,5.498-2.251,5.498-8.75c0-5,2.251-8.999,6.499-11.753
	c4.253-2.749,10.503-4.248,18.501-4.248s14.248,1.499,18.501,4.126c4.248,2.622,6.499,6.372,6.499,10.874
	c0,3.999,1.25,7.749,3.125,10.498C835,1268.252,837.5,1270,840,1270c2.998,0,5.498-1.748,7.251-4.502
	c1.748-2.749,2.749-6.499,2.749-10.498s1.25-7.749,3.125-10.498C855,1241.748,857.5,1240,860,1240c7.002,0,10,3.999,9.375,9.624
	s-4.873,12.876-12.373,19.375c-8.501,6.997-25.254,12.5-42.378,15.249C797.5,1287.002,780,1287.002,770,1282.998z M968.999,1272.998
	c-2.5-20-2.5-44.502-1.001-62.998c1.504-18.501,4.502-31.001,8.003-27.002c5,5,8.247,26.499,8.999,47.627
	c0.752,21.123-1.001,41.875-6.001,45.376c-2.5,1.499-4.751,1.997-6.499,1.499C970.752,1276.997,969.502,1275.498,968.999,1272.998z
	 M1020,1255c-5-6.001-7.5-9.751-7.002-12.002c0.498-2.246,4.004-2.998,11.006-2.998c4.492,0,8.496,1.25,11.367,3.125
	c2.881,1.875,4.629,4.375,4.629,6.875c0,2.998,1.25,5.498,3.125,7.251c1.875,1.748,4.375,2.749,6.875,2.749
	c2.998,0,5.498-1.499,7.246-3.877c1.758-2.373,2.754-5.625,2.754-9.121c0-6.504,8.496-10.752,18.496-11.875
	c10-1.128,21.504,0.874,27.5,6.875c1.504,2.002,6.758,1.25,14.004-1.377s16.504-7.129,25.996-12.627
	c22.002-12.998,33.008-15.498,33.125-10.996c0.127,4.497-10.625,15.996-32.119,30.996c-19.502,12.998-46.504,20.498-71.006,21.875
	C1051.504,1271.25,1029.502,1266.499,1020,1255z M747.002,1218.999c3.496-3.501,7.246-6.001,10.498-7.251s6.001-1.25,7.5,0.254
	c1.499,1.499,0.996,3.75-1.128,5.996c-2.124,2.251-5.874,4.502-10.874,6.001c-7.002,3.003-10.752,4.253-11.626,3.501
	S742.5,1223.999,747.002,1218.999z M1325,1213.999c-9.004-6.499-13.496-10-12.5-11.875s7.5-2.124,20.498-2.124
	c7.5,0,14.248,1.001,19.131,2.627c4.873,1.621,7.871,3.872,7.871,6.372c0,8.501-3.75,13.252-10,14.126S1335,1220.996,1325,1213.999z
	 M950,1182.998c0.498-7.002,7.998-18.75,16.123-27.998s16.875-15.996,19.878-12.998c1.499,2.002,0.498,5.996-2.251,10.874
	c-2.749,4.873-7.246,10.62-12.749,16.123c-6.001,6.001-11.25,10.503-15,13.003S950,1185,950,1182.998z M1307.002,1163.999
	c-18.994-10.503-27.5-19.502-26.25-23.501s12.246-2.998,32.246,6.504c20,10,30,15,33.75,18.252c3.75,3.247,1.25,4.746-3.75,7.744
	c-2.002,1.504-7.002,1.25-13.496-0.371C1322.998,1171.001,1315,1167.998,1307.002,1163.999z M1230.996,1133.999
	c0-5.503,0.752-8.999,1.875-10.127c1.133-1.123,2.637,0.127,4.131,4.126c1.494,3.501,2.002,7.5,1.748,11.001
	s-1.25,6.499-2.754,8.003c-1.504,2.002-2.998,1.499-3.994-0.879C1230.996,1143.75,1230.498,1139.502,1230.996,1133.999z
	 M1310.996,1120c0-3.999,0.996-9.502,2.627-15s3.877-11.001,6.377-15c5.996-8.999,9.004-9.502,9.004-4.375
	s-3.008,15.874-9.004,29.375c-2.998,6.499-5.254,10.249-6.748,11.123C1311.748,1127.002,1310.996,1125,1310.996,1120z M757.002,1085
	c-5-7.002-8.999-13.252-11.499-17.749c-2.505-4.502-3.501-7.251-2.505-7.251c3.501,0,15.254,9.248,26.128,19.375
	S790,1100.498,790,1103.999c0,6.499-3.999,7.5-10.127,3.999C773.75,1104.502,765.498,1096.499,757.002,1085z M1092.998,1053.999
	c10-9.497,19.248-20,26.006-29.126c6.748-9.121,10.996-16.875,10.996-20.874c0-4.995-1.504-6.997-5-5.747s-9.004,5.752-17.002,13.75
	c-10.498,10.498-15.996,15.747-19.746,15.996s-5.752-4.502-9.248-13.999c-3.008-8.003-5-12.002-6.26-12.251
	c-1.25-0.249-1.748,3.252-1.748,10.254c-0.498,5.996-1.992,9.746-4.746,11.499c-2.754,1.748-6.748,1.499-12.246-0.503
	c-5.508-2.002-11.006-1.748-16.133,0.376c-5.117,2.124-9.863,6.128-13.867,11.626c-5,7.002-8.496,10.752-10.752,11.377
	s-3.252-1.875-3.252-7.378c0-6.001-0.498-8.999-2.129-8.872c-1.621,0.127-4.375,3.374-8.872,9.873
	c-3.999,6.001-6.997,9.004-9.497,9.253s-4.502-2.251-6.504-7.251s-3.999-7.5-7.124-7.5s-7.373,2.5-13.872,7.5
	c-6.504,5.498-10.254,7.998-11.626,7.373c-1.377-0.625-0.376-4.375,2.622-11.377c1.504-5,2.002-9.502,1.504-12.749
	c-0.503-3.247-2.002-5.249-4.502-5.249c-2.998,0-5.498,1.25-7.251,3.125C941.001,1025,940,1027.5,940,1030
	c0,2.998-1.001,5.498-2.749,7.251c-1.753,1.748-4.253,2.749-7.251,2.749c-2.5,0-5-1.748-6.875-4.624s-3.125-6.88-3.125-11.377
	c0-6.499,1.748-10.249,6.377-11.748c4.624-1.499,12.124-0.752,23.623,1.748c8.501,1.499,16.001,1.753,21.377,1.001
	c5.371-0.752,8.623-2.5,8.623-5s2.998-4.502,7.998-5.874s12.002-2.124,20-2.124c7.5,0.498,17.998-1.25,28.877-4.253
	s22.129-7.251,31.123-11.753c15-7.998,22.998-11.748,27.256-11.494c4.248,0.244,4.746,4.502,4.746,12.5
	c0,6.494,0.752,10,2.627,10.747c1.875,0.752,4.873-1.245,9.375-5.747c10.498-10.498,18.252-13.75,22.5-10.254
	c4.248,3.506,4.99,13.755,1.494,30.254c-1.992,8.999-6.748,19.746-12.871,29.746s-13.623,19.253-21.123,25.254
	c-21.494,17.998-34.248,24.497-36.377,21.621S1071.992,1073.496,1092.998,1053.999z M1195.996,1072.002
	c-1.504-2.5-3.242-7.5-5-13.75c-1.748-6.25-3.496-13.75-5-21.25c-1.992-10.498-2.246-16.748-0.371-19.751
	c1.875-2.998,5.879-2.749,12.373-0.249c4.502,2.002,7.256,3.999,8.008,5.874s-0.498,3.623-4.004,5.122
	c-3.506,1.001-5.498,3.75-5.879,8.379c-0.371,4.624,0.879,11.123,3.877,19.624c4.502,11.499,6.25,19.751,5.498,22.998
	C1204.746,1082.251,1201.504,1080.498,1195.996,1072.002z M822.002,1048.999c-6.504-2.5-13.252-4.248-18.877-5.122
	c-5.625-0.879-10.127-0.879-12.124,0.122c-1.997,1.499-6.748,0-12.876-3.623c-6.123-3.628-13.623-9.38-21.123-16.377
	c-11.001-10.503-17.5-16.001-21.001-16.997c-3.501-1.001-3.999,2.5-3.003,10c0.498,5,0,9.751-1.372,13.501
	c-1.377,3.745-3.628,6.499-6.626,7.495c-7.002,2.002-11.748-5-13.125-14.121c-1.377-9.126,0.625-20.376,7.124-26.875
	c6.997-7.002,22.251-4.502,35.874,2.5c13.628,6.997,25.625,18.496,26.128,29.497c0,6.499,0.249,9.751,1.25,9.629
	c1.001-0.127,2.749-3.628,5.747-10.63c2.5-5.996,5.249-9.746,8.623-11.25c3.379-1.499,7.378-0.752,12.378,2.251
	c3.999,2.5,8.75,4.502,13.252,5.625c4.497,1.128,8.745,1.377,11.748,0.376c24.497-7.5,41.001-11.25,51.377-11.25
	S900,1017.5,900,1025c0,6.001-10.249,15.498-22.002,22.998c-11.748,7.5-25,12.998-30.996,11.001c-0.498,0-3.75-1.001-8.379-2.749
	C833.999,1054.502,827.998,1052.002,822.002,1048.999z M781.001,982.998l-16.997-2.002l-17.002-1.992l20.996-20l21.001-20
	c11.499-10.996,23.003-20.254,32.251-26.377S837.5,903.496,840,905c2.998,1.504,5.498,1.748,7.251,0.869
	C848.999,905,850,902.998,850,900c0-4.004,1.499-5.996,4.751-5.996c3.247,0,8.247,1.992,15.249,5.996
	c6.001,3.496,14.751,5.498,24.873,5.996c10.127,0.508,21.626-0.498,33.125-2.998c26.504-5,40.503-7.5,49.502-7.5
	s12.998,2.5,19.502,7.5c3.496,2.5,8.252,4.248,13.125,5s9.873,0.498,13.877-0.996c4.492-2.002,7.744-2.256,9.492-1.006
	c1.758,1.25,2.012,4.004,0.508,8.008c-1.504,3.496,0.244,7.998,4.121,12.617c3.867,4.629,9.873,9.375,16.875,13.379
	c15.996,8.496,24.248,16.504,24.502,21.377c0.244,4.873-7.51,6.631-23.506,2.627c-6.504-1.504-14.492-1.758-22.246-1.006
	s-15.254,2.5-20.752,5c-10.498,5.498-55.996,11.006-105.122,14.248C858.75,985.498,806.001,986.504,781.001,982.998z M960,957.998
	c15.498,0.498,30.498-1.748,41.626-5.615c11.128-3.877,18.374-9.375,18.374-15.381c0-8.506-22.998-13.75-55-15
	c-32.002-1.26-72.998,1.494-108.999,8.994c-25.503,5.508-39.502,9.004-45.249,12.5c-5.752,3.506-23.013,11.289-15.513,16.787
	c6.001,4.502,34.761,2.969,47.012,4.092S870,965,888.999,962.998c15.503-1.494,31.25-2.744,44.126-3.623
	S956.001,957.998,960,957.998z M1160,865c-4.004-4.502-5.996-8.252-6.25-10.879c-0.254-2.617,1.25-4.121,4.248-4.121
	c6.006,0,12.5,4.746,16.631,10.371c4.121,5.625,5.879,12.129,2.373,15.625c-1.006,0.996-3.506,0.508-6.631-1.367
	C1167.246,872.754,1163.496,869.502,1160,865z M762.002,850c0-7.002,0.498-11.758,1.372-13.877c0.874-2.129,2.124-1.631,3.628,1.875
	c0.996,2.998,1.499,7.5,1.499,12.129c0,4.619-0.503,9.365-1.499,12.871c-1.504,2.998-2.754,3.252-3.628,1.006
	S762.002,857.002,762.002,850z M830,860.996c0-2.5,1.25-5.752,3.125-8.75S837.5,846.504,840,845
	c2.998-1.504,5.498-2.002,7.251-1.377c1.748,0.625,2.749,2.373,2.749,5.381c0,2.5-1.001,5.752-2.749,8.75
	c-1.753,2.998-4.253,5.742-7.251,7.246c-2.5,1.504-5,2.002-6.875,1.377S830,864.004,830,860.996z M860,854.004
	c0-5,1.499-8.496,4.126-10.381c2.622-1.875,6.372-2.119,10.874-0.625c3.999,2.002,8.252,2.5,11.875,1.875S893.501,842.5,895,840
	c2.998-4.502,8.999-6.504,16.499-5.996c7.5,0.498,16.499,3.496,25.503,8.994c2.998,2.002,7.5,2.998,12.373,3.125
	s10.127-0.615,14.624-2.119s8.501-2.002,11.377-1.377S980,845,980,847.998c0,8.506-13.501,14.004-28.501,15.381
	c-15,1.367-31.499-1.377-37.5-9.375c-5-6.504-7.998-9.756-10.498-9.629c-2.5,0.117-4.497,3.623-7.5,10.625
	c-3.501,10-12.5,14.746-20.625,14.502S860,864.004,860,854.004z M1060,839.004c0-2.5,1.25-4.248,3.125-5s4.375-0.508,6.875,0.996
	c2.998,1.504,5.498,3.496,7.246,5.498c1.758,2.002,2.754,3.994,2.754,5.498c0,0.996-0.996,2.002-2.754,2.754
	c-1.748,0.752-4.248,1.25-7.246,1.25c-2.5,0-5-1.25-6.875-3.252S1060,842.002,1060,839.004z M880,789.004c0-2.5,1.25-4.248,3.125-5
	S887.5,783.496,890,785c2.998,1.504,5.498,3.496,7.251,5.498c1.748,2.002,2.749,3.994,2.749,5.498c0,0.996-1.001,2.002-2.749,2.754
	c-1.753,0.752-4.253,1.25-7.251,1.25c-2.5,0-5-1.25-6.875-3.252S880,792.002,880,789.004z M715,780c1.499-2.5,3.496-5,5.498-6.875
	s4.004-3.125,5.503-3.125c1.001,0,1.997,1.25,2.749,3.125S730,777.5,730,780c0,2.998-1.25,5.498-3.252,7.246
	c-1.997,1.758-4.746,2.754-7.749,2.754c-2.5,0-4.248-0.996-5-2.754C713.252,785.498,713.501,782.998,715,780z M825,779.004
	c-2.002-3.008-3.252-6.25-3.623-9.131c-0.376-2.881,0.122-5.381,1.621-6.875c3.501-3.506,10.254-2.002,16.128,1.875
	S850,775,850,780.996s-4.248,9.004-9.502,8.75C835.249,789.502,828.999,785.996,825,779.004z M996.001,732.998
	c-3.003-7.002-4.253-10.752-3.501-11.621c0.752-0.879,3.501,1.123,8.501,5.625c3.501,3.506,6.001,7.256,7.251,10.498
	c1.24,3.252,1.24,5.996-0.254,7.5s-3.75,0.996-5.996-1.123C999.751,741.748,997.5,737.998,996.001,732.998z"/>
</svg>
